<svg width="139" height="71" viewBox="0 0 139 71" fill="none" xmlns="http://www.w3.org/2000/svg">
<path d="M20.0758 5.07776L20.0429 5.08171C16.6035 5.59159 14.1312 8.82819 14.6322 12.267C15.1451 15.6682 18.4228 18.0531 21.8321 17.5826C22.7138 17.4354 23.6292 17.1146 24.3701 16.6232C24.5 16.5399 24.6574 16.5111 24.8084 16.5429C24.9594 16.5747 25.0918 16.6646 25.1771 16.7931C25.2624 16.9217 25.2938 17.0787 25.2644 17.2302C25.2349 17.3816 25.1472 17.5155 25.02 17.6028C24.2504 18.1144 23.392 18.4774 22.4889 18.6731L23.0427 22.4091L25.7298 22.0108L25.4596 20.1882C25.4368 20.034 25.4761 19.877 25.569 19.7518C25.6618 19.6266 25.8007 19.5434 25.9549 19.5205C26.1091 19.4977 26.2661 19.537 26.3913 19.6299C26.5165 19.7228 26.5997 19.8616 26.6225 20.0158L26.8927 21.8384L29.7016 21.422L29.4314 19.5994C29.4085 19.4452 29.4479 19.2882 29.5407 19.163C29.6336 19.0378 29.7724 18.9546 29.9266 18.9317C30.0809 18.9089 30.2378 18.9482 30.363 19.0411C30.4883 19.134 30.5714 19.2728 30.5943 19.427L30.8645 21.2496L33.6735 20.8332L33.4033 19.0106C33.392 18.9342 33.3958 18.8564 33.4146 18.7815C33.4333 18.7066 33.4666 18.6362 33.5126 18.5742C33.5586 18.5122 33.6164 18.4598 33.6826 18.4201C33.7488 18.3805 33.8222 18.3542 33.8986 18.3429C33.9749 18.3316 34.0528 18.3354 34.1276 18.3542C34.2025 18.3729 34.273 18.4063 34.335 18.4522C34.397 18.4982 34.4493 18.556 34.489 18.6222C34.5287 18.6884 34.5549 18.7618 34.5662 18.8382L34.8364 20.6608L37.7671 20.2263L37.2126 16.4856C36.3146 16.5497 35.4125 16.4495 34.5505 16.19C34.4035 16.1433 34.2806 16.0407 34.2085 15.9042C34.1364 15.7678 34.1209 15.6085 34.1652 15.4607C34.2096 15.3129 34.3102 15.1885 34.4455 15.1142C34.5807 15.04 34.7398 15.0219 34.8883 15.0639C35.715 15.3118 36.6553 15.3582 37.5165 15.2569C37.5194 15.2569 37.5244 15.2565 37.5324 15.2553C40.972 14.7454 43.4446 11.5088 42.9436 8.0699C42.4253 4.63359 39.1203 2.25344 35.6809 2.76331C35.65 2.76883 35.6172 2.77457 35.5833 2.78053C35.3762 2.81686 35.122 2.86148 34.9379 2.91475C35.3059 3.63663 35.5538 4.41361 35.672 5.21519C35.6948 5.36941 35.6555 5.52638 35.5626 5.65159C35.4697 5.7768 35.3309 5.85999 35.1767 5.88285C35.0225 5.90571 34.8655 5.86638 34.7403 5.7735C34.6151 5.68062 34.5319 5.5418 34.5091 5.38759C34.1538 2.99104 32.4739 1.06798 30.264 0.326601C25.8617 -1.13853 21.3161 2.53077 22.0142 7.23988C22.0371 7.39408 21.9977 7.55105 21.9049 7.67625C21.812 7.80145 21.6732 7.88463 21.519 7.90749C21.3648 7.93035 21.2078 7.89102 21.0826 7.79814C20.9574 7.70527 20.8742 7.56646 20.8514 7.41226C20.7325 6.61485 20.7437 5.80346 20.8845 5.00963C20.644 5.00969 20.3228 5.04817 20.0758 5.07776Z" fill="white"/>
<path fill-rule="evenodd" clip-rule="evenodd" d="M40.3553 49.1993C44.2414 46.5981 46.8 42.1683 46.8 37.1408C46.8 29.1327 40.3081 22.6408 32.3 22.6408C24.2919 22.6408 17.8 29.1327 17.8 37.1408C17.8 42.3526 20.5497 46.9222 24.6775 49.478L30.4965 45.5849L31.8648 46.5555L26.6902 50.2303L26.6613 50.2498C26.6144 50.2814 26.5345 50.3353 26.4315 50.4041C28.2257 51.1992 30.2113 51.6408 32.3 51.6408C34.5604 51.6408 36.7001 51.1236 38.607 50.201L25.1937 40.6407C25.1113 40.5822 25.0127 40.5512 24.9117 40.5519C24.8106 40.5526 24.7124 40.585 24.6308 40.6445C24.0599 41.0171 23.3886 41.2061 22.7071 41.186C22.0257 41.1659 21.3667 40.9378 20.8187 40.5322C20.0813 40.0486 19.5444 39.314 19.3073 38.4647C19.1939 38.0937 19.1648 37.702 19.2222 37.3183C19.2797 36.9346 19.4222 36.5686 19.6394 36.2471C19.8565 35.9256 20.1428 35.6567 20.4772 35.4601C20.8117 35.2635 21.1859 35.1442 21.5724 35.1109C22.4486 35.0125 23.3307 35.2351 24.0554 35.7374C24.6363 36.0939 25.0942 36.6196 25.3676 37.244C25.6411 37.8683 25.7169 38.5613 25.5851 39.23C25.5603 39.328 25.567 39.4314 25.6042 39.5254C25.6414 39.6194 25.7072 39.6993 25.7923 39.7539L40.3553 49.1993ZM42.691 41.1846C43.3725 41.1647 44.0317 40.9367 44.5798 40.5313C46.1216 39.4917 46.6522 37.5635 45.7611 36.2434C44.87 34.9234 42.8873 34.694 41.345 35.7335C40.7655 36.0915 40.3086 36.6174 40.0351 37.2412C39.7615 37.8651 39.6842 38.5574 39.8134 39.2262C39.838 39.3241 39.8312 39.4272 39.794 39.521C39.7568 39.6148 39.6911 39.6946 39.6062 39.7491L33.5945 43.6046L34.8726 44.4239L40.2043 40.6387C40.2867 40.5803 40.3854 40.5493 40.4864 40.5499C40.5874 40.5506 40.6856 40.583 40.7672 40.6426C41.3381 41.0154 42.0094 41.2045 42.691 41.1846Z" fill="white"/>
<path d="M15.36 49.7067L14.84 47.6667C12.4933 48.3333 10.5733 48.6667 9.08 48.6667C6.84 48.6667 5.16 47.76 4.04 45.9467C2.92 44.1333 2.36 41.2267 2.36 37.2267C2.36 33.2267 2.88 30.3333 3.92 28.5467C4.98667 26.7333 6.70667 25.8267 9.08 25.8267C10.7867 25.8267 12.6 26.2267 14.52 27.0267L15.16 25.0267C13.0533 24.2 11.0267 23.7867 9.08 23.7867C5.90667 23.7867 3.6 24.8667 2.16 27.0267C0.72 29.16 0 32.5867 0 37.3067C0 42.0267 0.733333 45.4533 2.2 47.5867C3.69333 49.6933 5.97333 50.7467 9.04 50.7467C10.9067 50.7467 13.0133 50.4 15.36 49.7067Z" fill="white"/>
<path fill-rule="evenodd" clip-rule="evenodd" d="M50.8 31.6267C50.5333 33.1467 50.4 34.9467 50.4 37.0267C50.4 41.2133 50.9733 44.4933 52.12 46.8667C53.3733 49.48 55.6 50.7867 58.8 50.7867C62.0533 50.7867 64.2933 49.48 65.52 46.8667C66.1067 45.5867 66.5333 44.1467 66.8 42.5467C67.0667 40.9467 67.2 38.8 67.2 36.1067C67.2 33.3867 66.8533 31.0267 66.16 29.0267C64.9867 25.56 62.5333 23.8133 58.8 23.7867C55.52 23.7867 53.28 25.0267 52.08 27.5067C51.4933 28.7333 51.0667 30.1067 50.8 31.6267ZM64.72 33.8667C64.8 34.7467 64.84 35.9067 64.84 37.3467C64.8667 40.28 64.5333 42.8133 63.84 44.9467C63.04 47.4533 61.36 48.7067 58.8 48.7067C56.2933 48.7067 54.6267 47.4667 53.8 44.9867C53.4 43.7867 53.12 42.5733 52.96 41.3467C52.8267 40.0933 52.76 38.4667 52.76 36.4667C52.76 34.44 52.9467 32.6 53.32 30.9467C53.56 29.88 53.88 29 54.28 28.3067C54.7067 27.6133 55.2933 27.04 56.04 26.5867C56.8133 26.1067 57.7333 25.8667 58.8 25.8667C59.8667 25.8667 60.7733 26.1067 61.52 26.5867C62.2933 27.04 62.88 27.6133 63.28 28.3067C63.7067 29 64.04 29.88 64.28 30.9467C64.52 32.0133 64.6667 32.9867 64.72 33.8667Z" fill="white"/>
<path d="M69.64 50.3867V24.1867H71.84V36.5467L75.72 36.1467C77.9867 32.84 79.9467 29.4533 81.6 25.9867L82.44 24.1867H84.88C82.5867 28.9333 80.2 33.1867 77.72 36.9467C79.88 40.36 82 44.12 84.08 48.2267L85.2 50.3867H82.64C80.4533 45.72 78.2133 41.6533 75.92 38.1867L71.84 38.5867V50.3867H69.64Z" fill="white"/>
<path d="M89.24 48.3867V50.3867H100.4V48.3867H95.96V26.1867H100.4V24.1867H89.24V26.1867H93.76V48.3867H89.24Z" fill="white"/>
<path d="M118.56 50.3867V46.2667L107.16 28.3467H107.04V50.3867H104.84V24.1867H107L118.44 42.3067H118.56V24.1867H120.76V50.3867H118.56Z" fill="white"/>
<path d="M124.56 47.5867C126.053 49.72 128.347 50.7867 131.44 50.7867C133.44 50.7867 135.813 50.2933 138.56 49.3067V37.7867H131.84V39.7467H136.36V47.7467C134.44 48.3867 132.8 48.7067 131.44 48.7067C129.173 48.7067 127.48 47.8 126.36 45.9867C125.24 44.1467 124.68 41.2267 124.68 37.2267C124.68 33.2 125.213 30.3067 126.28 28.5467C127.373 26.76 129.173 25.8667 131.68 25.8667C133.413 25.8667 135.493 26.28 137.92 27.1067L138.48 25.0667C136.107 24.2133 133.84 23.7867 131.68 23.7867C128.373 23.7867 125.987 24.8533 124.52 26.9867C123.053 29.12 122.32 32.56 122.32 37.3067C122.32 42.0267 123.067 45.4533 124.56 47.5867Z" fill="white"/>
<path d="M8.11951 59.4409H10.0715V70.6409H8.11951V65.6169H3.47951V70.6409H1.5275V59.4409H3.47951V63.6649H8.11951V59.4409ZM13.9163 70.6409V59.4409H20.9403V61.3929H15.8683V63.6649H19.8923V65.6169H15.8683V68.6889H20.9403V70.6409H13.9163ZM28.1115 59.4409H30.3595L34.4315 70.6409H32.3595L31.6395 68.6569H26.8395L26.1195 70.6409H24.0475L28.1115 59.4409ZM27.5515 66.7049H30.9195L29.2315 62.0889L27.5515 66.7049ZM37.6938 70.6409V59.4409H39.6458V68.6889H44.3098V70.6409H37.6938ZM55.2656 59.4409V61.3929H51.8416V70.6409H49.8896V61.3929H46.4656V59.4409H55.2656ZM65.3758 59.4409H67.3278V70.6409H65.3758V65.6169H60.7358V70.6409H58.7838V59.4409H60.7358V63.6649H65.3758V59.4409ZM78.0365 59.4409H80.3405L76.4925 65.5929V70.6409H74.5405V65.5929L70.6925 59.4409H72.9965L75.5165 63.4649L78.0365 59.4409ZM89.4656 70.6409V59.4409H96.0816V61.3929H91.4176V63.6649H95.3136V65.6169H91.4176V70.6409H89.4656ZM104.211 70.8489C103.453 70.8489 102.741 70.6995 102.075 70.4009C101.408 70.0969 100.821 69.6782 100.315 69.1449C99.808 68.6115 99.4106 67.9955 99.1226 67.2969C98.8346 66.5929 98.6906 65.8409 98.6906 65.0409C98.6906 64.2409 98.8346 63.4915 99.1226 62.7929C99.4106 62.0889 99.808 61.4702 100.315 60.9369C100.821 60.4035 101.408 59.9875 102.075 59.6889C102.741 59.3849 103.453 59.2329 104.211 59.2329C104.973 59.2329 105.688 59.3849 106.355 59.6889C107.021 59.9875 107.608 60.4035 108.115 60.9369C108.621 61.4702 109.016 62.0889 109.299 62.7929C109.587 63.4915 109.731 64.2409 109.731 65.0409C109.731 65.8409 109.587 66.5929 109.299 67.2969C109.016 67.9955 108.621 68.6115 108.115 69.1449C107.608 69.6782 107.021 70.0969 106.355 70.4009C105.688 70.6995 104.973 70.8489 104.211 70.8489ZM104.211 68.8969C104.701 68.8969 105.163 68.7955 105.595 68.5929C106.027 68.3902 106.405 68.1129 106.731 67.7609C107.061 67.4035 107.317 66.9929 107.499 66.5289C107.685 66.0649 107.779 65.5689 107.779 65.0409C107.779 64.5129 107.685 64.0169 107.499 63.5529C107.312 63.0835 107.053 62.6729 106.723 62.3209C106.397 61.9689 106.019 61.6915 105.587 61.4889C105.16 61.2862 104.701 61.1849 104.211 61.1849C103.72 61.1849 103.259 61.2862 102.827 61.4889C102.395 61.6915 102.013 61.9715 101.683 62.3289C101.357 62.6809 101.101 63.0889 100.915 63.5529C100.733 64.0169 100.643 64.5129 100.643 65.0409C100.643 65.5742 100.736 66.0729 100.923 66.5369C101.109 67.0009 101.365 67.4115 101.691 67.7689C102.021 68.1209 102.4 68.3982 102.827 68.6009C103.259 68.7982 103.72 68.8969 104.211 68.8969ZM118.318 70.8489C117.561 70.8489 116.849 70.6995 116.182 70.4009C115.515 70.0969 114.929 69.6782 114.422 69.1449C113.915 68.6115 113.518 67.9955 113.23 67.2969C112.942 66.5929 112.798 65.8409 112.798 65.0409C112.798 64.2409 112.942 63.4915 113.23 62.7929C113.518 62.0889 113.915 61.4702 114.422 60.9369C114.929 60.4035 115.515 59.9875 116.182 59.6889C116.849 59.3849 117.561 59.2329 118.318 59.2329C119.081 59.2329 119.795 59.3849 120.462 59.6889C121.129 59.9875 121.715 60.4035 122.222 60.9369C122.729 61.4702 123.123 62.0889 123.406 62.7929C123.694 63.4915 123.838 64.2409 123.838 65.0409C123.838 65.8409 123.694 66.5929 123.406 67.2969C123.123 67.9955 122.729 68.6115 122.222 69.1449C121.715 69.6782 121.129 70.0969 120.462 70.4009C119.795 70.6995 119.081 70.8489 118.318 70.8489ZM118.318 68.8969C118.809 68.8969 119.27 68.7955 119.702 68.5929C120.134 68.3902 120.513 68.1129 120.838 67.7609C121.169 67.4035 121.425 66.9929 121.606 66.5289C121.793 66.0649 121.886 65.5689 121.886 65.0409C121.886 64.5129 121.793 64.0169 121.606 63.5529C121.419 63.0835 121.161 62.6729 120.83 62.3209C120.505 61.9689 120.126 61.6915 119.694 61.4889C119.267 61.2862 118.809 61.1849 118.318 61.1849C117.827 61.1849 117.366 61.2862 116.934 61.4889C116.502 61.6915 116.121 61.9715 115.79 62.3289C115.465 62.6809 115.209 63.0889 115.022 63.5529C114.841 64.0169 114.75 64.5129 114.75 65.0409C114.75 65.5742 114.843 66.0729 115.03 66.5369C115.217 67.0009 115.473 67.4115 115.798 67.7689C116.129 68.1209 116.507 68.3982 116.934 68.6009C117.366 68.7982 117.827 68.8969 118.318 68.8969ZM127.21 70.6409V59.4409H130.922C131.695 59.4409 132.418 59.5875 133.09 59.8809C133.767 60.1689 134.362 60.5715 134.874 61.0889C135.391 61.6009 135.794 62.1955 136.082 62.8729C136.375 63.5449 136.522 64.2675 136.522 65.0409C136.522 65.8142 136.375 66.5395 136.082 67.2169C135.794 67.8889 135.391 68.4835 134.874 69.0009C134.362 69.5129 133.767 69.9155 133.09 70.2089C132.418 70.4969 131.695 70.6409 130.922 70.6409H127.21ZM129.162 68.6889H130.922C131.418 68.6889 131.885 68.5955 132.322 68.4089C132.765 68.2169 133.154 67.9555 133.49 67.6249C133.826 67.2889 134.09 66.9022 134.282 66.4649C134.474 66.0222 134.57 65.5475 134.57 65.0409C134.57 64.5342 134.474 64.0622 134.282 63.6249C134.09 63.1875 133.826 62.8009 133.49 62.4649C133.154 62.1289 132.767 61.8675 132.33 61.6809C131.893 61.4889 131.423 61.3929 130.922 61.3929H129.162V68.6889Z" fill="white"/>
</svg>
