<?xml version="1.0" standalone="no"?>
<!DOCTYPE svg PUBLIC "-//W3C//DTD SVG 20010904//EN"
 "http://www.w3.org/TR/2001/REC-SVG-20010904/DTD/svg10.dtd">
<svg version="1.0" xmlns="http://www.w3.org/2000/svg"
 width="80.000000pt" height="80.000000pt" viewBox="0 0 80.000000 80.000000"
 preserveAspectRatio="xMidYMid meet">
<metadata>
Created by potrace 1.14, written by Peter Selinger 2001-2017
</metadata>
<g transform="translate(0.000000,80.000000) scale(0.100000,-0.100000)"
fill="#000000" stroke="none">
<path d="M0 400 l0 -400 400 0 400 0 0 400 0 400 -400 0 -400 0 0 -400z m425
248 c15 -18 25 -25 21 -15 -8 26 38 22 64 -5 40 -43 18 -96 -46 -108 -34 -7
-36 -9 -16 -15 25 -8 31 -45 7 -45 -8 0 -15 5 -15 12 0 6 -7 3 -15 -8 -13 -16
-16 -17 -26 -4 -8 11 -12 12 -16 3 -2 -7 -11 -13 -18 -13 -7 0 -16 6 -18 13
-3 7 -6 5 -6 -5 -1 -25 -31 -23 -31 2 0 10 8 24 18 30 13 8 9 9 -18 5 -27 -5
-42 -1 -63 15 -34 27 -35 63 -2 95 29 29 42 31 48 8 4 -14 5 -13 6 4 1 30 39
63 72 63 19 0 36 -10 54 -32z m51 -227 c97 -44 124 -159 56 -240 l-27 -33 -79
50 c-43 28 -84 61 -90 74 -14 28 -53 36 -62 14 -9 -23 14 -46 45 -46 14 0 39
-11 55 -23 l29 -24 -37 -23 -38 -23 -30 30 c-52 53 -51 158 3 212 50 50 110
61 175 32z m-30 -255 c25 -17 32 -26 23 -32 -15 -9 -96 -10 -106 -1 -5 6 32
51 45 56 2 1 19 -10 38 -23z"/>
<path d="M498 275 c-8 -14 -27 -35 -44 -45 -17 -12 -23 -20 -13 -20 8 0 20 5
26 11 7 7 29 15 50 18 32 5 38 10 38 31 0 37 -39 40 -57 5z"/>
</g>
</svg>
